<svg width="173" height="51" viewBox="0 0 173 51" fill="none" xmlns="http://www.w3.org/2000/svg">
<path fill-rule="evenodd" clip-rule="evenodd" d="M20.9971 8H34.4131L40.9675 19.548L28.1222 42.1016H14.704L8 30.4089L20.9971 8ZM21.546 10.9149L10.2362 30.4145L15.2623 39.1807L26.4449 19.5464L21.546 10.9149ZM28.1222 20.5158L16.9315 40.1644H26.9961L38.1868 20.5158H28.1222ZM38.1897 18.5786H28.1231L23.2186 9.93722H33.2851L38.1897 18.5786Z" fill="black"/>
<path fill-rule="evenodd" clip-rule="evenodd" d="M71.7775 30.5554L65.0693 42.1741L51.7915 42.0761L38.6819 19.6749L45.3911 8.05444L58.8695 8.09509L71.7775 30.5554ZM68.9786 29.5732L57.7463 10.0289L47.6415 9.99844L59.0543 29.5001L68.9786 29.5732ZM57.3761 30.4679L45.9551 10.9521L40.9226 19.6684L52.3436 39.1843L57.3761 30.4679ZM54.02 40.1551L59.0532 31.4374L68.989 31.5106L63.9558 40.2283L54.02 40.1551Z" fill="black"/>
<path d="M94.0916 30.7842L97.9796 14.8271H104.19V35.0773H100.95V16.9602L101.76 17.7701H99.3836L100.41 16.9331L95.7656 35.0773H92.0936L87.5846 16.9331L88.5836 17.7701H86.2076L87.0176 16.9602V35.0773H83.7776V14.8271H90.0146L93.8216 30.7842L93.2816 30.3791H94.5776L94.0916 30.7842Z" fill="black"/>
<path d="M114.636 35.3471C113.538 35.3471 112.503 35.1491 111.531 34.7531C110.559 34.3391 109.704 33.781 108.966 33.079C108.246 32.359 107.679 31.5221 107.265 30.568C106.851 29.614 106.644 28.597 106.644 27.517C106.644 26.4371 106.851 25.429 107.265 24.493C107.679 23.539 108.246 22.702 108.966 21.982C109.704 21.262 110.559 20.704 111.531 20.308C112.503 19.894 113.538 19.687 114.636 19.687C115.734 19.687 116.76 19.894 117.714 20.308C118.686 20.704 119.532 21.262 120.252 21.982C120.99 22.702 121.566 23.539 121.98 24.493C122.394 25.429 122.601 26.4371 122.601 27.517C122.601 28.597 122.394 29.614 121.98 30.568C121.566 31.5221 120.99 32.359 120.252 33.079C119.532 33.781 118.686 34.3391 117.714 34.7531C116.76 35.1491 115.734 35.3471 114.636 35.3471ZM114.636 32.3231C115.464 32.3231 116.229 32.1251 116.931 31.7291C117.633 31.3151 118.182 30.748 118.578 30.028C118.992 29.308 119.199 28.471 119.199 27.517C119.199 26.563 118.992 25.726 118.578 25.006C118.182 24.286 117.633 23.728 116.931 23.332C116.229 22.918 115.464 22.711 114.636 22.711C113.79 22.711 113.016 22.918 112.314 23.332C111.63 23.728 111.072 24.286 110.64 25.006C110.226 25.726 110.019 26.563 110.019 27.517C110.019 28.471 110.226 29.308 110.64 30.028C111.072 30.748 111.63 31.3151 112.314 31.7291C113.016 32.1251 113.79 32.3231 114.636 32.3231Z" fill="black"/>
<path d="M139.353 35.0773H136.113V14.8271H139.353V35.0773ZM130.821 35.3472C129.813 35.3472 128.877 35.1493 128.013 34.7533C127.167 34.3393 126.411 33.7812 125.745 33.0792C125.097 32.3592 124.584 31.5312 124.206 30.5951C123.828 29.6411 123.639 28.6241 123.639 27.5441C123.639 26.4461 123.828 25.4291 124.206 24.4931C124.584 23.5391 125.097 22.7021 125.745 21.9821C126.411 21.2621 127.167 20.7041 128.013 20.3081C128.877 19.8941 129.813 19.6871 130.821 19.6871C131.847 19.6871 132.792 19.8941 133.656 20.3081C134.52 20.7041 135.258 21.2621 135.87 21.9821C136.5 22.7021 136.986 23.5391 137.328 24.4931C137.67 25.4291 137.841 26.4372 137.841 27.5171C137.841 28.5971 137.67 29.6141 137.328 30.5681C136.986 31.5222 136.5 32.3592 135.87 33.0792C135.258 33.7812 134.52 34.3393 133.656 34.7533C132.792 35.1493 131.847 35.3472 130.821 35.3472ZM131.55 32.3232C132.396 32.3232 133.161 32.1252 133.845 31.7292C134.547 31.3332 135.096 30.7752 135.492 30.0552C135.906 29.3172 136.113 28.4711 136.113 27.5171C136.113 26.5451 135.906 25.7081 135.492 25.0061C135.096 24.2861 134.547 23.7281 133.845 23.3321C133.161 22.9181 132.396 22.7111 131.55 22.7111C130.722 22.7111 129.966 22.9181 129.282 23.3321C128.598 23.7281 128.049 24.2861 127.635 25.0061C127.239 25.7081 127.041 26.5541 127.041 27.5441C127.041 28.4801 127.239 29.3172 127.635 30.0552C128.049 30.7752 128.598 31.3332 129.282 31.7292C129.966 32.1252 130.722 32.3232 131.55 32.3232Z" fill="black"/>
<path d="M157.322 35.0771H154.082V19.957H157.322V35.0771ZM148.79 35.3471C147.782 35.3471 146.846 35.1491 145.982 34.7531C145.136 34.3391 144.38 33.781 143.714 33.079C143.066 32.359 142.553 31.5311 142.175 30.595C141.797 29.641 141.608 28.624 141.608 27.544C141.608 26.446 141.797 25.429 142.175 24.493C142.553 23.539 143.066 22.702 143.714 21.982C144.38 21.262 145.136 20.704 145.982 20.308C146.846 19.894 147.782 19.687 148.79 19.687C149.816 19.687 150.761 19.894 151.625 20.308C152.489 20.704 153.227 21.262 153.839 21.982C154.469 22.702 154.955 23.539 155.297 24.493C155.639 25.429 155.81 26.4371 155.81 27.517C155.81 28.597 155.639 29.614 155.297 30.568C154.955 31.5221 154.469 32.359 153.839 33.079C153.227 33.781 152.489 34.3391 151.625 34.7531C150.761 35.1491 149.816 35.3471 148.79 35.3471ZM149.519 32.3231C150.365 32.3231 151.13 32.1251 151.814 31.7291C152.516 31.3331 153.065 30.7751 153.461 30.0551C153.875 29.3171 154.082 28.471 154.082 27.517C154.082 26.545 153.875 25.708 153.461 25.006C153.065 24.286 152.516 23.728 151.814 23.332C151.13 22.918 150.365 22.711 149.519 22.711C148.691 22.711 147.935 22.918 147.251 23.332C146.567 23.728 146.018 24.286 145.604 25.006C145.208 25.708 145.01 26.554 145.01 27.544C145.01 28.48 145.208 29.3171 145.604 30.0551C146.018 30.7751 146.567 31.3331 147.251 31.7291C147.935 32.1251 148.691 32.3231 149.519 32.3231Z" fill="black"/>
<path d="M164.06 35.0773H160.82V14.8271H164.06V35.0773Z" fill="black"/>
</svg>
